<svg width="137" height="33" viewBox="0 0 137 33" fill="none" xmlns="http://www.w3.org/2000/svg">
<path d="M35.448 21.72C35.576 22.008 35.64 22.264 35.64 22.488C35.64 22.936 35.456 23.32 35.088 23.64C34.736 23.944 34.328 24.096 33.864 24.096C33.56 24.096 33.272 24.016 33 23.856C32.728 23.68 32.52 23.424 32.376 23.088L31.104 20.256H22.968L21.696 23.088C21.552 23.424 21.344 23.68 21.072 23.856C20.816 24.016 20.528 24.096 20.208 24.096C19.744 24.096 19.328 23.944 18.96 23.64C18.592 23.32 18.408 22.936 18.408 22.488C18.408 22.264 18.472 22.008 18.6 21.72L25.08 8.112C25.256 7.728 25.52 7.44 25.872 7.248C26.224 7.04 26.6 6.936 27 6.936C27.416 6.936 27.8 7.04 28.152 7.248C28.504 7.456 28.776 7.744 28.968 8.112L35.448 21.72ZM24.24 17.424H29.832L27.048 11.184L24.24 17.424ZM45.0107 24.216C43.3467 24.216 41.8907 23.864 40.6427 23.16C39.3947 22.456 38.4347 21.448 37.7627 20.136C37.0907 18.824 36.7547 17.288 36.7547 15.528C36.7547 13.768 37.0907 12.24 37.7627 10.944C38.4347 9.632 39.3947 8.624 40.6427 7.92C41.8907 7.216 43.3467 6.864 45.0107 6.864C47.1067 6.864 48.9147 7.44 50.4347 8.592C50.6747 8.784 50.8427 8.976 50.9387 9.168C51.0347 9.36 51.0827 9.6 51.0827 9.888C51.0827 10.304 50.9627 10.664 50.7227 10.968C50.4987 11.256 50.2187 11.4 49.8827 11.4C49.6587 11.4 49.4587 11.376 49.2827 11.328C49.1227 11.264 48.9387 11.16 48.7307 11.016C48.0907 10.6 47.4987 10.304 46.9547 10.128C46.4107 9.936 45.8267 9.84 45.2027 9.84C43.6667 9.84 42.5067 10.32 41.7227 11.28C40.9547 12.224 40.5707 13.64 40.5707 15.528C40.5707 19.336 42.1147 21.24 45.2027 21.24C45.7947 21.24 46.3547 21.152 46.8827 20.976C47.4107 20.784 48.0267 20.48 48.7307 20.064C48.9707 19.92 49.1707 19.824 49.3307 19.776C49.4907 19.712 49.6747 19.68 49.8827 19.68C50.2187 19.68 50.4987 19.832 50.7227 20.136C50.9627 20.424 51.0827 20.776 51.0827 21.192C51.0827 21.48 51.0267 21.728 50.9147 21.936C50.8187 22.128 50.6587 22.312 50.4347 22.488C48.9147 23.64 47.1067 24.216 45.0107 24.216ZM67.5488 25.92C67.7728 26.272 67.8848 26.616 67.8848 26.952C67.8848 27.384 67.7008 27.744 67.3328 28.032C66.9808 28.32 66.5648 28.464 66.0848 28.464C65.7488 28.464 65.4288 28.384 65.1248 28.224C64.8368 28.064 64.6048 27.832 64.4288 27.528L62.9888 25.128C62.7968 24.808 62.5408 24.576 62.2208 24.432C61.9008 24.288 61.4688 24.216 60.9248 24.216C59.2448 24.216 57.7808 23.864 56.5328 23.16C55.3008 22.44 54.3488 21.432 53.6768 20.136C53.0048 18.824 52.6688 17.288 52.6688 15.528C52.6688 13.768 53.0048 12.24 53.6768 10.944C54.3488 9.632 55.3008 8.624 56.5328 7.92C57.7808 7.216 59.2448 6.864 60.9248 6.864C62.6048 6.864 64.0608 7.216 65.2928 7.92C66.5408 8.624 67.5008 9.632 68.1728 10.944C68.8448 12.24 69.1808 13.768 69.1808 15.528C69.1808 17.368 68.8128 18.96 68.0768 20.304C67.3568 21.632 66.3248 22.624 64.9808 23.28C65.7648 23.52 66.3968 24.032 66.8768 24.816L67.5488 25.92ZM60.9248 21.312C62.3328 21.312 63.4368 20.816 64.2368 19.824C65.0528 18.832 65.4608 17.4 65.4608 15.528C65.4608 13.656 65.0608 12.232 64.2608 11.256C63.4608 10.264 62.3488 9.768 60.9248 9.768C59.5008 9.768 58.3888 10.264 57.5888 11.256C56.8048 12.232 56.4128 13.656 56.4128 15.528C56.4128 17.4 56.8128 18.832 57.6128 19.824C58.4128 20.816 59.5168 21.312 60.9248 21.312ZM79.2154 24.216C76.8474 24.216 75.0394 23.608 73.7914 22.392C72.5594 21.16 71.9434 19.368 71.9434 17.016V8.808C71.9434 8.248 72.1114 7.8 72.4474 7.464C72.7834 7.128 73.2314 6.96 73.7914 6.96C74.3514 6.96 74.7914 7.128 75.1114 7.464C75.4474 7.8 75.6154 8.248 75.6154 8.808V17.184C75.6154 18.528 75.9194 19.552 76.5274 20.256C77.1514 20.96 78.0474 21.312 79.2154 21.312C80.3834 21.312 81.2794 20.96 81.9034 20.256C82.5274 19.536 82.8394 18.512 82.8394 17.184V8.808C82.8394 8.248 82.9994 7.8 83.3194 7.464C83.6554 7.128 84.1034 6.96 84.6634 6.96C85.2234 6.96 85.6714 7.128 86.0074 7.464C86.3434 7.8 86.5114 8.248 86.5114 8.808V17.016C86.5114 19.352 85.8874 21.136 84.6394 22.368C83.3914 23.6 81.5834 24.216 79.2154 24.216ZM102.022 7.944C102.166 7.608 102.374 7.36 102.646 7.2C102.918 7.024 103.222 6.936 103.558 6.936C104.038 6.936 104.47 7.096 104.854 7.416C105.238 7.736 105.43 8.128 105.43 8.592C105.43 8.832 105.374 9.072 105.262 9.312L98.7816 22.992C98.6056 23.36 98.3416 23.648 97.9896 23.856C97.6376 24.048 97.2536 24.144 96.8376 24.144C96.4216 24.144 96.0376 24.048 95.6856 23.856C95.3336 23.648 95.0696 23.36 94.8936 22.992L88.4136 9.312C88.3016 9.088 88.2456 8.856 88.2456 8.616C88.2456 8.136 88.4456 7.736 88.8456 7.416C89.2456 7.096 89.6936 6.936 90.1896 6.936C90.5256 6.936 90.8296 7.024 91.1016 7.2C91.3896 7.36 91.6056 7.608 91.7496 7.944L96.8856 19.176L102.022 7.944ZM121.323 21.72C121.451 22.008 121.515 22.264 121.515 22.488C121.515 22.936 121.331 23.32 120.963 23.64C120.611 23.944 120.203 24.096 119.739 24.096C119.435 24.096 119.147 24.016 118.875 23.856C118.603 23.68 118.395 23.424 118.251 23.088L116.979 20.256H108.843L107.571 23.088C107.427 23.424 107.219 23.68 106.947 23.856C106.691 24.016 106.403 24.096 106.083 24.096C105.619 24.096 105.203 23.944 104.835 23.64C104.467 23.32 104.283 22.936 104.283 22.488C104.283 22.264 104.347 22.008 104.475 21.72L110.955 8.112C111.131 7.728 111.395 7.44 111.747 7.248C112.099 7.04 112.475 6.936 112.875 6.936C113.291 6.936 113.675 7.04 114.027 7.248C114.379 7.456 114.651 7.744 114.843 8.112L121.323 21.72ZM110.115 17.424H115.707L112.923 11.184L110.115 17.424Z" fill="#F4000C"/>
<circle cx="6.65231" cy="17.3477" r="5.65231" stroke="#D5B4B2" stroke-width="2"/>
<circle cx="6.65231" cy="17.3477" r="5.65231" stroke="#FD1C41" stroke-width="2"/>
</svg>
