<svg width="31" height="31" viewBox="0 0 31 31" fill="none" xmlns="http://www.w3.org/2000/svg">
<path d="M29.25 2.74219H22.8516V0.304688C22.8516 0.137109 22.7145 0 22.5469 0H20.4141C20.2465 0 20.1094 0.137109 20.1094 0.304688V2.74219H10.3594V0.304688C10.3594 0.137109 10.2223 0 10.0547 0H7.92188C7.7543 0 7.61719 0.137109 7.61719 0.304688V2.74219H1.21875C0.544629 2.74219 0 3.28682 0 3.96094V29.25C0 29.9241 0.544629 30.4688 1.21875 30.4688H29.25C29.9241 30.4688 30.4688 29.9241 30.4688 29.25V3.96094C30.4688 3.28682 29.9241 2.74219 29.25 2.74219ZM27.7266 27.7266H2.74219V13.2539H27.7266V27.7266ZM2.74219 10.6641V5.48438H7.61719V7.3125C7.61719 7.48008 7.7543 7.61719 7.92188 7.61719H10.0547C10.2223 7.61719 10.3594 7.48008 10.3594 7.3125V5.48438H20.1094V7.3125C20.1094 7.48008 20.2465 7.61719 20.4141 7.61719H22.5469C22.7145 7.61719 22.8516 7.48008 22.8516 7.3125V5.48438H27.7266V10.6641H2.74219Z" fill="#FD1C41"/>
</svg>
