<svg width="59" height="59" viewBox="0 0 59 59" fill="none" xmlns="http://www.w3.org/2000/svg">
<rect width="59" height="59" fill="#FFDAE0"/>
<g clip-path="url(#clip0)">
<path d="M29.5001 13.8695C33.7796 13.8695 37.261 17.3508 37.261 21.6304C37.261 25.91 33.7797 29.3913 29.5001 29.3913C25.2205 29.3913 21.7392 25.9099 21.7392 21.6304C21.7392 17.3509 25.2205 13.8695 29.5001 13.8695ZM29.5001 27.1738C32.5556 27.1738 35.0435 24.6859 35.0435 21.6304C35.0435 18.5749 32.5556 16.087 29.5001 16.087C26.4446 16.087 23.9567 18.5749 23.9567 21.6304C23.9567 24.6859 26.4445 27.1738 29.5001 27.1738Z" fill="#FD1C41"/>
<path d="M13.9783 22.7391C17.0338 22.7391 19.5217 25.227 19.5217 28.2826C19.5217 31.3381 17.0338 33.826 13.9783 33.826C10.9228 33.826 8.43485 31.3381 8.43485 28.2826C8.43485 25.227 10.9228 22.7391 13.9783 22.7391ZM13.9783 31.6087C15.8121 31.6087 17.3044 30.1164 17.3044 28.2826C17.3044 26.4488 15.8121 24.9565 13.9783 24.9565C12.1445 24.9565 10.6522 26.4488 10.6522 28.2826C10.6522 30.1164 12.1446 31.6087 13.9783 31.6087Z" fill="#FD1C41"/>
<path d="M44.8643 22.7391C47.9221 22.7391 50.4077 25.227 50.4077 28.2826C50.4077 31.3381 47.9198 33.826 44.8643 33.826C41.8087 33.826 39.3208 31.3381 39.3208 28.2826C39.3208 25.227 41.8066 22.7391 44.8643 22.7391ZM44.8643 31.6087C46.6981 31.6087 48.1904 30.1164 48.1904 28.2826C48.1904 26.4488 46.6981 24.9565 44.8643 24.9565C43.0305 24.9565 41.5382 26.4488 41.5382 28.2826C41.5382 30.1164 43.0306 31.6087 44.8643 31.6087Z" fill="#FD1C41"/>
<path d="M29.5 31.6086C37.4472 31.6086 43.9131 38.0745 43.9131 46.0217C43.9131 46.6337 43.4164 47.1304 42.8044 47.1304C42.1924 47.1304 41.6956 46.6337 41.6956 46.0217C41.6956 39.2964 36.2254 33.8261 29.5 33.8261C22.7747 33.8261 17.3044 39.2964 17.3044 46.0217C17.3044 46.6337 16.8077 47.1304 16.1957 47.1304C15.5837 47.1304 15.087 46.6337 15.087 46.0217C15.087 38.0745 21.5529 31.6086 29.5 31.6086Z" fill="#FD1C41"/>
<path d="M13.9782 36.0435C15.803 36.0435 17.5903 36.5424 19.1469 37.4848C19.668 37.8041 19.8365 38.4848 19.5194 39.0081C19.1979 39.5315 18.5194 39.6978 17.9961 39.3807C16.7877 38.6466 15.3995 38.2608 13.9782 38.2608C9.69864 38.2608 6.21726 41.7421 6.21726 46.0217C6.21726 46.6337 5.72053 47.1304 5.10853 47.1304C4.49653 47.1304 3.99981 46.6337 3.99981 46.0217C3.99991 40.5204 8.47682 36.0435 13.9782 36.0435Z" fill="#FD1C41"/>
<path d="M39.8552 37.4825C41.4096 36.5424 43.1968 36.0435 45.0217 36.0435C50.5231 36.0435 55 40.5204 55 46.0217C55 46.6337 54.5033 47.1304 53.8913 47.1304C53.2793 47.1304 52.7825 46.6337 52.7825 46.0217C52.7826 41.7421 49.3013 38.2608 45.0217 38.2608C43.6004 38.2608 42.2123 38.6466 41.006 39.3784C40.485 39.6955 39.802 39.5292 39.4827 39.0059C39.1634 38.4825 39.332 37.8018 39.8552 37.4825Z" fill="#FD1C41"/>
</g>
<defs>
<clipPath id="clip0">
<rect width="51" height="51" fill="white" transform="matrix(-1 0 0 1 55 5)"/>
</clipPath>
</defs>
</svg>
