<svg width="59" height="59" viewBox="0 0 59 59" fill="none" xmlns="http://www.w3.org/2000/svg">
<rect width="59" height="59" fill="#FD3858" fill-opacity="0.34"/>
<path d="M39.4531 9.25C33.6375 9.25 28.9062 13.9812 28.9062 19.7969C28.9062 25.6125 33.6375 30.3438 39.4531 30.3438C45.2687 30.3438 50 25.6125 50 19.7969C50 13.9812 45.2687 9.25 39.4531 9.25ZM39.4531 25.6562C38.0375 25.6562 36.7656 24.8133 36.2141 23.5094L38.3727 22.5961C38.557 23.0312 38.9812 23.3125 39.4531 23.3125C40.0992 23.3125 40.625 22.7867 40.625 22.1406C40.625 21.4945 40.0992 20.9688 39.4531 20.9688C37.5148 20.9688 35.9375 19.3914 35.9375 17.4531C35.9375 15.5148 37.5148 13.9375 39.4531 13.9375C40.8687 13.9375 42.1406 14.7805 42.6922 16.0844L40.5336 16.9977C40.3492 16.5625 39.9258 16.2812 39.4531 16.2812C38.807 16.2812 38.2812 16.807 38.2812 17.4531C38.2812 18.0992 38.807 18.625 39.4531 18.625C41.3914 18.625 42.9688 20.2023 42.9688 22.1406C42.9688 24.0789 41.3914 25.6562 39.4531 25.6562Z" fill="#FD1C41"/>
<path d="M45.1594 31.3547C43.4383 32.2078 41.5008 32.6875 39.4531 32.6875C32.7406 32.6875 27.2094 27.5297 26.6148 20.9688H24.1406C22.4945 20.9688 20.9148 21.3023 19.4336 21.9617C18.2312 21.3102 16.9039 20.9688 15.557 20.9688H11.968L13.9742 26.9883C13.7742 27.3375 13.6008 27.6711 13.4516 28H10V37.375H13.4445C14.3602 39.457 15.882 41.2531 17.7938 42.4906C18.8328 43.1633 19.4531 44.3023 19.4531 45.5375V46.75H26.4844V44.4062H33.5156V46.75H40.5469V45.5781C40.5469 43.6172 41.2406 41.7094 42.5008 40.2062C44.6469 37.6469 45.5148 34.4133 45.1594 31.3547ZM21.7969 30.3438H19.4531V28H21.7969V30.3438Z" fill="#FD1C41"/>
</svg>
