<svg width="59" height="59" viewBox="0 0 59 59" fill="none" xmlns="http://www.w3.org/2000/svg">
<rect width="59" height="59" fill="#F9D5FF"/>
<path d="M39 23H19V29H20V40C20 40.5304 20.2107 41.0391 20.5858 41.4142C20.9609 41.7893 21.4696 42 22 42H36C36.5304 42 37.0391 41.7893 37.4142 41.4142C37.7893 41.0391 38 40.5304 38 40V29H39V23ZM21 25H37V27H21V25ZM36 40H22V29H36V40ZM26 31H32C32 31.5304 31.7893 32.0391 31.4142 32.4142C31.0391 32.7893 30.5304 33 30 33H28C27.4696 33 26.9609 32.7893 26.5858 32.4142C26.2107 32.0391 26 31.5304 26 31Z" fill="#DD1CFD"/>
</svg>
