<svg width="59" height="59" viewBox="0 0 59 59" fill="none" xmlns="http://www.w3.org/2000/svg">
<rect width="59" height="59" fill="#FFECD0"/>
<path d="M42.4126 31.9678H16.5874L13.8132 37.5162H16.3226V50H42.6774V37.5162H45.1868L42.4126 31.9678ZM41.5552 33.3549L42.9423 36.1291H32.0094L30.6223 33.3549H41.5552ZM17.4449 33.3549H28.3777L26.9907 36.1291H16.0578L17.4449 33.3549ZM41.2903 48.6129H30.1936V43.7581H28.8065V48.6129H17.7097V37.5162H27.8481L28.8065 35.5991V41.6775H30.1936V35.5991L31.1519 37.5162H41.2903V48.6129Z" fill="#FEBE5F"/>
<path d="M19.0967 43.0646H23.258V44.4517H19.0967V43.0646Z" fill="#FEBE5F"/>
<path d="M19.0967 45.8387H23.258V47.2258H19.0967V45.8387Z" fill="#FEBE5F"/>
<path d="M24.645 45.8387H26.0321V47.2258H24.645V45.8387Z" fill="#FEBE5F"/>
<path d="M26.297 18.28L29.4999 17.4635L32.7028 18.2793L32.9537 14.84L34.6551 11.9338L31.6459 10.6313L29.4999 7.97803L27.3532 10.6313L24.344 11.9338L26.0454 14.84L26.297 18.28ZM28.2174 11.7682L29.4999 10.1833L30.7823 11.7688L32.6672 12.5853L31.5944 14.4181L31.4403 16.5272L29.4999 16.0327L27.5594 16.5265L27.4054 14.4174L26.3325 12.5843L28.2174 11.7682Z" fill="#FEBE5F"/>
<path d="M15.6152 19.6955L16.623 17.9749L14.8377 17.2014L13.5485 15.6071L12.2592 17.2007L10.4739 17.9742L11.4817 19.6949L11.6307 21.7471L13.5485 21.2594L15.4669 21.7477L15.6152 19.6955ZM14.2559 19.2722L14.2031 19.9942L13.5485 19.8279L12.8945 19.9942L12.841 19.2722L12.4617 18.6237L13.1228 18.3376L13.5485 17.8123L13.9735 18.3382L14.6345 18.6247L14.2559 19.2722Z" fill="#FEBE5F"/>
<path d="M47.5183 19.6955L48.5261 17.9749L46.7408 17.2014L45.4515 15.6071L44.1623 17.2007L42.377 17.9742L43.3848 19.6949L43.5338 21.7471L45.4515 21.2594L47.37 21.7477L47.5183 19.6955ZM46.159 19.2722L46.1061 19.9942L45.4515 19.8279L44.7976 19.9942L44.7448 19.2722L44.3655 18.6237L45.0265 18.3376L45.4515 17.8123L45.8765 18.3382L46.5376 18.6247L46.159 19.2722Z" fill="#FEBE5F"/>
<path d="M16.631 23.5287C17.9517 24.4095 19.1251 25.4844 20.1164 26.7245L22.8635 30.157L22.2952 25.6127C21.9985 23.2402 20.7313 21.0562 18.8187 19.6221L18.1542 19.1239L16.1213 23.1887L16.631 23.5287ZM18.63 21.2746C19.8028 22.3844 20.5982 23.8616 20.8709 25.4596C19.9948 24.4308 19.0008 23.5141 17.9053 22.7241L18.63 21.2746Z" fill="#FEBE5F"/>
<path d="M36.7047 25.6127L36.1365 30.157L38.8836 26.7238C39.8755 25.4836 41.0482 24.4088 42.3689 23.5279L42.8779 23.1879L40.845 19.1232L40.1806 19.6227C38.2686 21.0568 37.0007 23.2401 36.7047 25.6127ZM41.0946 22.724C39.9991 23.5141 39.0045 24.4301 38.1291 25.4596C38.4024 23.8615 39.1972 22.3843 40.3699 21.2746L41.0946 22.724Z" fill="#FEBE5F"/>
<path d="M32.2742 30.5807H33.6613V27.6747C33.6613 24.3435 34.8354 21.1006 36.9688 18.5408L35.9028 17.6528C33.5627 20.4612 32.2742 24.0204 32.2742 27.6747V30.5807Z" fill="#FEBE5F"/>
<path d="M37.1292 15.3225H38.5162V16.7096H37.1292V15.3225Z" fill="#FEBE5F"/>
<path d="M39.2097 12.5483H40.5968V13.9354H39.2097V12.5483Z" fill="#FEBE5F"/>
<path d="M25.3386 30.5807H26.7257V27.6747C26.7257 24.0197 25.4372 20.4612 23.0978 17.6528L22.0317 18.5408C24.1645 21.1006 25.3386 24.3435 25.3386 27.6747V30.5807Z" fill="#FEBE5F"/>
<path d="M20.4839 15.3225H21.871V16.7096H20.4839V15.3225Z" fill="#FEBE5F"/>
<path d="M18.4033 12.5483H19.7904V13.9354H18.4033V12.5483Z" fill="#FEBE5F"/>
<path d="M28.8064 18.7903H30.1935V20.1774H28.8064V18.7903Z" fill="#FEBE5F"/>
<path d="M28.8064 21.5646H30.1935V30.5807H28.8064V21.5646Z" fill="#FEBE5F"/>
<path d="M48.2258 25.7258H49.6129V27.1129H48.2258V25.7258Z" fill="#FEBE5F"/>
<path d="M48.2258 28.5H49.6129V29.8871H48.2258V28.5Z" fill="#FEBE5F"/>
<path d="M49.6128 27.1129H50.9999V28.5H49.6128V27.1129Z" fill="#FEBE5F"/>
<path d="M46.8386 27.1129H48.2257V28.5H46.8386V27.1129Z" fill="#FEBE5F"/>
<path d="M46.145 7H47.5321V8.3871H46.145V7Z" fill="#FEBE5F"/>
<path d="M46.145 9.77417H47.5321V11.1613H46.145V9.77417Z" fill="#FEBE5F"/>
<path d="M47.5322 8.38708H48.9193V9.77418H47.5322V8.38708Z" fill="#FEBE5F"/>
<path d="M44.7581 8.38708H46.1451V9.77418H44.7581V8.38708Z" fill="#FEBE5F"/>
<path d="M9.38721 28.5H10.7743V29.8871H9.38721V28.5Z" fill="#FEBE5F"/>
<path d="M9.38721 31.2742H10.7743V32.6613H9.38721V31.2742Z" fill="#FEBE5F"/>
<path d="M10.7742 29.8871H12.1613V31.2742H10.7742V29.8871Z" fill="#FEBE5F"/>
<path d="M8 29.8871H9.3871V31.2742H8V29.8871Z" fill="#FEBE5F"/>
<path d="M9.38721 7H10.7743V8.3871H9.38721V7Z" fill="#FEBE5F"/>
<path d="M9.38721 9.77417H10.7743V11.1613H9.38721V9.77417Z" fill="#FEBE5F"/>
<path d="M10.7742 8.38708H12.1613V9.77418H10.7742V8.38708Z" fill="#FEBE5F"/>
<path d="M8 8.38708H9.3871V9.77418H8V8.38708Z" fill="#FEBE5F"/>
</svg>
