<svg width="1920" height="1080" viewBox="0 0 1920 1080" fill="none" xmlns="http://www.w3.org/2000/svg">
<g clip-path="url(#clip0)">
<rect width="1920" height="1080" fill="white"/>
<rect width="1920" height="1080" fill="url(#paint0_linear)"/>
<g filter="url(#filter0_d)">
<rect x="333" width="1080" height="333" rx="20" transform="rotate(90 333 0)" fill="white" fill-opacity="0.27" shape-rendering="crispEdges"/>
</g>
<path d="M1013.15 666.623C1011.53 666.623 1009.94 667.104 1008.59 668.005C1007.24 668.906 1006.19 670.187 1005.57 671.685C1004.95 673.184 1004.79 674.833 1005.11 676.424C1005.42 678.015 1006.2 679.476 1007.35 680.623C1008.5 681.77 1009.96 682.551 1011.55 682.867C1013.14 683.184 1014.79 683.021 1016.29 682.401C1017.79 681.78 1019.07 680.729 1019.97 679.38C1020.87 678.031 1021.35 676.446 1021.35 674.824C1021.35 672.649 1020.49 670.563 1018.95 669.025C1017.41 667.487 1015.33 666.623 1013.15 666.623ZM1013.15 679.871C1012.15 679.871 1011.18 679.575 1010.35 679.02C1009.52 678.466 1008.87 677.677 1008.49 676.755C1008.1 675.833 1008 674.818 1008.2 673.839C1008.39 672.86 1008.88 671.961 1009.58 671.255C1010.29 670.549 1011.19 670.068 1012.17 669.874C1013.15 669.679 1014.16 669.779 1015.08 670.161C1016.01 670.543 1016.79 671.19 1017.35 672.02C1017.9 672.85 1018.2 673.826 1018.2 674.824V674.824C1018.2 676.162 1017.67 677.446 1016.72 678.393C1015.77 679.339 1014.49 679.871 1013.15 679.871V679.871Z" fill="#E4E4E4"/>
<path d="M981.599 660.313H1013.15V691.533C1013.15 692.623 1012.72 693.668 1011.95 694.439C1011.18 695.209 1010.13 695.642 1009.04 695.642H985.709C984.619 695.642 983.574 695.209 982.803 694.439C982.032 693.668 981.599 692.623 981.599 691.533V660.313V660.313Z" fill="#E4E4E4"/>
<path d="M1086.87 696.357H612.64C612.464 696.337 612.302 696.254 612.183 696.122C612.065 695.991 612 695.82 612 695.643C612 695.466 612.065 695.295 612.183 695.164C612.302 695.032 612.464 694.948 612.64 694.929H1086.87C1087.05 694.948 1087.21 695.032 1087.33 695.164C1087.44 695.295 1087.51 695.466 1087.51 695.643C1087.51 695.82 1087.44 695.991 1087.33 696.122C1087.21 696.254 1087.05 696.337 1086.87 696.357V696.357Z" fill="#CACACA"/>
<path d="M675.834 682.874L672.901 697.372L727.442 715.583L731.771 694.185L675.834 682.874Z" fill="#FFB6B6"/>
<path d="M681.317 680.133L675.541 708.686L675.54 708.687C674.564 713.513 671.71 717.753 667.606 720.475C663.502 723.197 658.485 724.178 653.658 723.202L653.067 723.082L662.525 676.333L681.317 680.133Z" fill="#2F2E41"/>
<path d="M737.64 483.163C758.093 483.163 774.673 466.587 774.673 446.139C774.673 425.692 758.093 409.115 737.64 409.115C717.187 409.115 700.607 425.692 700.607 446.139C700.607 466.587 717.187 483.163 737.64 483.163Z" fill="#FEB8B8"/>
<path d="M772.229 414.198C766.693 405.21 758.026 398.586 747.897 395.603L743.351 398.92V394.613C740.918 394.241 738.456 394.098 735.997 394.185L732.075 397.733V394.48C726.267 395.201 720.672 397.118 715.643 400.109C710.613 403.1 706.258 407.1 702.851 411.858C694.333 424.135 692.895 441.214 701.274 453.59C703.573 446.523 706.365 439.893 708.665 432.828C710.473 433.074 712.305 433.083 714.115 432.854L716.913 426.327L717.694 432.578C726.367 431.823 739.231 430.164 747.453 428.644L746.654 423.848L751.437 427.833C753.956 427.254 755.452 426.728 755.328 426.326C761.443 436.182 768.927 442.476 775.041 452.332C777.363 438.435 780.036 426.88 772.229 414.198Z" fill="#2F2E41"/>
<path d="M749.689 688.416C802.352 688.416 845.044 676.477 845.044 661.75C845.044 647.023 802.352 635.084 749.689 635.084C697.026 635.084 654.334 647.023 654.334 661.75C654.334 676.477 697.026 688.416 749.689 688.416Z" fill="#2F2E41"/>
<path d="M817.288 541.348C816.014 533.688 814.701 525.882 811.14 518.982C808.8 514.462 805.085 510.155 800.077 509.261C799.091 509.174 798.122 508.949 797.197 508.595C795.73 507.888 776.012 496.635 772.878 494.675C770.187 492.992 765.939 489.877 763.797 489.877C761.642 489.829 753.38 491.752 721.132 489.232C715.707 491.409 710.454 493.991 705.417 496.956C705.313 496.887 671.946 514.801 670.693 514.754C668.319 514.654 666.112 516.174 664.751 518.087C663.39 520.001 662.752 522.37 662.084 524.66C669.372 540.886 676.04 557.133 683.329 573.359C683.67 573.971 683.851 574.658 683.856 575.358C683.709 576.084 683.399 576.768 682.949 577.356C679.375 583.097 679.488 590.316 679.879 597.063C680.27 603.809 680.753 610.936 677.737 616.983C676.917 618.643 675.85 620.163 675.07 621.823C673.243 625.583 672.582 637.609 673.65 641.649L807.348 645.478C804.473 637.578 817.288 541.348 817.288 541.348Z" fill="#FD1C41"/>
<path d="M650.527 574.079C650.26 576.008 650.233 577.963 650.447 579.899L652.363 607.412C652.543 610.005 652.72 612.592 652.964 615.178C653.423 620.198 654.11 625.178 654.963 630.151C654.982 630.857 655.281 631.527 655.793 632.013C656.306 632.499 656.99 632.762 657.696 632.744C666.132 634.529 674.847 634.457 683.456 633.971C696.592 633.238 730.201 631.851 732.254 629.185C734.307 626.518 733.111 622.205 730.433 620.048C727.756 617.892 683.405 612.635 683.405 612.635C683.838 609.202 685.146 605.969 686.386 602.709C688.613 596.927 690.694 590.956 690.734 584.762C690.774 578.569 688.44 572.057 683.365 568.509C679.191 565.596 673.816 565.056 668.729 565.176C665.028 565.282 658.633 564.396 655.253 565.843C652.577 567.02 651.027 571.46 650.527 574.079Z" fill="#FBBEBE"/>
<path d="M817.525 636.272C819.745 635.425 822.193 635.731 824.573 636.052C832.235 637.098 840.01 638.172 847.112 641.232C850.446 642.659 853.62 644.565 855.874 647.37C857.873 649.897 859.041 652.99 860.148 656.036L862.709 663.05C863.798 665.685 864.549 668.447 864.943 671.27C865.744 679.663 860.002 687.576 852.78 691.936C845.559 696.297 837.057 697.849 828.775 699.476C820.492 701.102 812.177 702.902 803.929 704.809C800.082 705.807 796.179 706.575 792.24 707.109C783.411 708.108 774.183 706.636 765.794 709.556C762.46 710.723 759.185 712.456 755.727 713.262C753.428 713.746 751.104 714.1 748.765 714.322L732.889 716.135C729.66 716.567 726.41 716.816 723.153 716.882C716.219 716.882 709.397 715.24 702.663 713.598C701.947 713.473 701.266 713.198 700.664 712.792C699.597 711.952 699.364 710.465 699.21 709.119C698.53 703.159 697.935 697.192 697.425 691.22C697.266 689.28 697.146 687.18 698.206 685.547C699.539 683.548 702.14 682.92 704.514 682.533C714.58 680.887 724.778 680.179 734.975 680.42C738.849 676.547 745.237 676.527 750.312 674.42C752.179 673.562 753.986 672.58 755.72 671.48C764.797 666.185 774.941 662.981 785.413 662.1C787.464 662.037 789.501 661.747 791.488 661.233C795.415 660.014 798.997 656.693 803.03 657.507C803.53 656.127 803.877 654.28 805.029 653.333C805.601 652.847 806.31 652.52 806.836 652C807.95 650.874 808.05 649.1 807.883 647.527C807.716 645.954 807.343 644.341 807.75 642.807C807.919 642.226 808.168 641.672 808.49 641.16C810.483 637.711 813.504 635.938 817.525 636.272Z" fill="#2F2E41"/>
<path d="M661.698 525.154C661.049 525.834 660.545 526.64 660.218 527.521C654.828 539.666 651.644 552.673 650.816 565.933C650.831 566.58 650.682 567.22 650.383 567.793C650.088 568.175 649.76 568.53 649.403 568.853C649.091 569.223 648.855 569.65 648.708 570.11C648.562 570.571 648.507 571.056 648.548 571.537C648.589 572.019 648.725 572.488 648.947 572.917C649.169 573.346 649.473 573.728 649.843 574.039C649.903 574.09 649.966 574.139 650.029 574.187C651.13 572.117 653.763 571.44 656.104 571.26C667.313 570.374 678.262 575.587 689.505 575.194C688.712 572.454 687.571 569.82 686.924 567.047C684.063 554.734 691.198 541.328 686.824 529.468C685.95 527.095 684.49 524.762 682.19 523.722C681.237 523.338 680.241 523.074 679.223 522.937C676.382 522.423 670.727 520.23 667.98 521.11C666.966 521.437 666.567 522.39 665.726 522.966C664.45 523.781 662.756 524.081 661.698 525.154Z" fill="#6C63FF"/>
<path d="M817.368 565.843C813.987 564.396 807.592 565.282 803.891 565.176C798.804 565.056 793.43 565.596 789.255 568.509C784.181 572.057 781.847 578.569 781.887 584.762C781.927 590.956 784.007 596.927 786.235 602.709C787.475 605.969 788.782 609.202 789.215 612.635C789.215 612.635 744.864 617.892 742.187 620.048C739.51 622.205 738.313 626.518 740.366 629.185C742.42 631.851 806.489 634.529 814.924 632.744C815.63 632.762 816.315 632.499 816.827 632.013C817.34 631.527 817.638 630.857 817.658 630.151C818.51 625.178 819.197 620.198 819.657 615.178C819.9 612.592 820.077 610.005 820.257 607.412L822.173 579.899C822.387 577.963 822.36 576.008 822.093 574.079C821.594 571.46 820.043 567.02 817.368 565.843Z" fill="#FBBEBE"/>
<path d="M806.894 522.966C806.054 522.39 805.654 521.437 804.64 521.11C801.894 520.23 796.239 522.423 793.398 522.937C792.38 523.074 791.383 523.338 790.431 523.722C788.13 524.762 786.67 527.095 785.796 529.468C781.422 541.328 788.557 554.734 785.696 567.047C785.05 569.82 783.909 572.454 783.115 575.194C794.358 575.587 805.307 570.374 816.516 571.26C818.857 571.44 821.491 572.117 822.591 574.187C822.655 574.139 822.717 574.09 822.778 574.039C823.147 573.728 823.452 573.346 823.674 572.917C823.896 572.488 824.031 572.019 824.072 571.537C824.113 571.056 824.059 570.571 823.912 570.11C823.765 569.65 823.53 569.223 823.218 568.853C822.86 568.53 822.532 568.175 822.238 567.793C821.939 567.22 821.79 566.58 821.804 565.933C820.976 552.673 817.792 539.666 812.402 527.521C812.075 526.64 811.572 525.834 810.922 525.154C809.864 524.081 808.171 523.781 806.894 522.966Z" fill="#6C63FF"/>
<path d="M825.644 703.571L823.695 718.234L766.195 717.695L769.072 696.053L825.644 703.571Z" fill="#FFB6B6"/>
<path d="M840.358 701.72L834.073 749L833.474 748.921C828.593 748.272 824.169 745.711 821.175 741.801C818.182 737.891 816.865 732.953 817.513 728.073L817.513 728.071L821.352 699.194L840.358 701.72Z" fill="#2F2E41"/>
<path d="M690.37 643.692C690.37 644.358 689.323 643.692 689.227 642.978C688.494 637.585 684.212 633.138 679.225 630.978C674.237 628.818 668.556 628.705 663.155 629.218C654.986 629.991 645.817 633.118 642.83 640.751C642.123 642.536 635.502 658.424 636.148 661.997C637.889 671.53 644.41 679.684 652.312 685.33C660.214 690.977 669.447 694.35 678.657 697.393C703.007 705.422 727.989 711.387 753.34 715.226C757.448 715.846 761.596 716.419 765.53 717.739C769.05 718.919 772.344 720.685 775.785 722.072C783.787 725.284 792.396 726.432 800.924 727.559C802.378 727.746 804.045 727.879 805.119 726.892C806.506 725.607 806.047 723.366 805.652 721.519C804.205 714.498 805.419 707.189 809.06 701.013C810.488 698.613 812.344 696.153 812.074 693.376C811.754 690.136 808.526 687.843 805.312 687.322C802.098 686.802 798.831 687.569 795.603 687.989C794.496 688.243 793.337 688.128 792.302 687.662C791.822 687.338 791.387 686.953 791.008 686.516C788.785 684.372 785.939 682.986 782.88 682.559C779.82 682.131 776.704 682.683 773.978 684.136C772.784 684.803 770.979 683.316 769.737 682.756L755.714 676.41C739.603 669.123 723.413 661.803 706.369 657.19C705.009 656.923 703.717 656.385 702.568 655.61C701.721 654.943 701.114 654.039 700.334 653.296C698.633 651.69 696.265 651.049 694.226 649.909C692.188 648.77 689.903 645.978 690.37 643.692Z" fill="#2F2E41"/>
<path d="M726.672 634.058C732.192 634.058 736.667 629.584 736.667 624.065C736.667 618.546 732.192 614.073 726.672 614.073C721.152 614.073 716.677 618.546 716.677 624.065C716.677 629.584 721.152 634.058 726.672 634.058Z" fill="#FBBEBE"/>
<path d="M748.804 634.058C754.325 634.058 758.8 629.584 758.8 624.065C758.8 618.546 754.325 614.073 748.804 614.073C743.284 614.073 738.809 618.546 738.809 624.065C738.809 629.584 743.284 634.058 748.804 634.058Z" fill="#FBBEBE"/>
<path d="M810.503 646.583H673.183C671.58 646.581 670.043 645.943 668.909 644.81C667.775 643.677 667.137 642.14 667.135 640.537V557.25C667.137 555.647 667.775 554.111 668.909 552.977C670.043 551.844 671.58 551.206 673.183 551.205H810.503C812.106 551.206 813.643 551.844 814.777 552.977C815.91 554.111 816.548 555.647 816.55 557.25V640.537C816.548 642.14 815.91 643.677 814.777 644.81C813.643 645.943 812.106 646.581 810.503 646.583Z" fill="#3F3D56"/>
<path d="M741.51 602.893C743.719 602.893 745.511 601.103 745.511 598.894C745.511 596.684 743.719 594.894 741.51 594.894C739.3 594.894 737.509 596.684 737.509 598.894C737.509 601.103 739.3 602.893 741.51 602.893Z" fill="white"/>
<path d="M1231.73 480.214H1053.32C1052.37 480.213 1051.46 479.837 1050.79 479.168C1050.12 478.499 1049.75 477.591 1049.75 476.645V443.027H1051.18V476.645C1051.18 477.213 1051.4 477.757 1051.8 478.159C1052.2 478.56 1052.75 478.786 1053.32 478.787H1231.73C1232.3 478.786 1232.84 478.56 1233.24 478.159C1233.64 477.757 1233.87 477.213 1233.87 476.645V442.792H1235.3V476.645C1235.3 477.591 1234.92 478.499 1234.25 479.168C1233.58 479.837 1232.67 480.213 1231.73 480.214V480.214Z" fill="#3F3D56"/>
<path d="M1296.4 442.313H877.158V443.741H1296.4V442.313Z" fill="#3F3D56"/>
<path d="M877.188 455.194C883.971 455.194 889.469 449.697 889.469 442.915C889.469 436.134 883.971 430.637 877.188 430.637C870.405 430.637 864.907 436.134 864.907 442.915C864.907 449.697 870.405 455.194 877.188 455.194Z" fill="#6C63FF"/>
<path d="M1001.99 455.194C1008.77 455.194 1014.27 449.697 1014.27 442.915C1014.27 436.134 1008.77 430.637 1001.99 430.637C995.207 430.637 989.708 436.134 989.708 442.915C989.708 449.697 995.207 455.194 1001.99 455.194Z" fill="#6C63FF"/>
<path d="M1086.69 491.282C1093.47 491.282 1098.97 485.785 1098.97 479.004C1098.97 472.223 1093.47 466.726 1086.69 466.726C1079.9 466.726 1074.41 472.223 1074.41 479.004C1074.41 485.785 1079.9 491.282 1086.69 491.282Z" fill="#3F3D56"/>
<path d="M1151.08 491.282C1157.86 491.282 1163.36 485.785 1163.36 479.004C1163.36 472.223 1157.86 466.726 1151.08 466.726C1144.29 466.726 1138.79 472.223 1138.79 479.004C1138.79 485.785 1144.29 491.282 1151.08 491.282Z" fill="#CCCCCC"/>
<path d="M1119.87 455.194C1126.66 455.194 1132.16 449.697 1132.16 442.915C1132.16 436.134 1126.66 430.637 1119.87 430.637C1113.09 430.637 1107.59 436.134 1107.59 442.915C1107.59 449.697 1113.09 455.194 1119.87 455.194Z" fill="#6C63FF"/>
<path d="M1294.72 455.194C1301.5 455.194 1307 449.697 1307 442.915C1307 436.134 1301.5 430.637 1294.72 430.637C1287.94 430.637 1282.44 436.134 1282.44 442.915C1282.44 449.697 1287.94 455.194 1294.72 455.194Z" fill="#6C63FF"/>
<path d="M1234.58 455.194C1241.37 455.194 1246.86 449.697 1246.86 442.915C1246.86 436.134 1241.37 430.637 1234.58 430.637C1227.8 430.637 1222.3 436.134 1222.3 442.915C1222.3 449.697 1227.8 455.194 1234.58 455.194Z" fill="#6C63FF"/>
<path d="M1097.8 330H1075.02V345.696H1097.8V330Z" fill="#3F3D56"/>
<path d="M888.668 330H865.888V345.696H888.668V330Z" fill="#6C63FF"/>
<path d="M965.826 330H943.046V345.696H965.826V330Z" fill="#CCCCCC"/>
<path d="M915.272 443.74C915.083 443.74 914.901 443.665 914.767 443.531C914.633 443.398 914.558 443.216 914.558 443.027V407.793C914.559 406.847 914.936 405.94 915.605 405.271C916.274 404.602 917.181 404.226 918.128 404.225H952.879C953.068 404.225 953.25 404.3 953.384 404.434C953.518 404.568 953.593 404.749 953.593 404.938C953.593 405.128 953.518 405.309 953.384 405.443C953.25 405.577 953.068 405.652 952.879 405.652H918.128C917.56 405.653 917.015 405.879 916.614 406.28C916.212 406.681 915.987 407.226 915.986 407.793V443.027C915.986 443.216 915.911 443.398 915.777 443.531C915.643 443.665 915.461 443.74 915.272 443.74V443.74Z" fill="#3F3D56"/>
<path d="M954.512 416.95C961.295 416.95 966.793 411.453 966.793 404.672C966.793 397.89 961.295 392.393 954.512 392.393C947.729 392.393 942.231 397.89 942.231 404.672C942.231 411.453 947.729 416.95 954.512 416.95Z" fill="#E6E6E6"/>
<path d="M1190.14 443.027H1188.71V407.793C1188.71 406.847 1189.09 405.94 1189.76 405.271C1190.43 404.602 1191.34 404.226 1192.28 404.225H1227.03V405.652H1192.28C1191.72 405.653 1191.17 405.879 1190.77 406.28C1190.37 406.681 1190.14 407.226 1190.14 407.793V443.027Z" fill="#3F3D56"/>
<path d="M1228.67 416.95C1235.45 416.95 1240.95 411.453 1240.95 404.672C1240.95 397.89 1235.45 392.393 1228.67 392.393C1221.89 392.393 1216.39 397.89 1216.39 404.672C1216.39 411.453 1221.89 416.95 1228.67 416.95Z" fill="#E6E6E6"/>
<path d="M919.975 552.502C920.251 551.766 920.665 551.214 921.217 550.846C921.799 550.447 922.443 550.248 923.149 550.248C924.038 550.248 924.789 550.524 925.403 551.076C926.047 551.628 926.369 552.379 926.369 553.33C926.369 553.79 926.277 554.296 926.093 554.848L916.525 581.022C916.249 581.758 915.758 582.341 915.053 582.77C914.378 583.169 913.627 583.368 912.799 583.368C911.971 583.368 911.219 583.169 910.545 582.77C909.87 582.341 909.395 581.758 909.119 581.022L902.265 561.656L895.227 581.022C894.951 581.758 894.475 582.341 893.801 582.77C893.126 583.169 892.375 583.368 891.547 583.368C890.749 583.368 889.998 583.169 889.293 582.77C888.618 582.341 888.143 581.758 887.867 581.022L878.299 554.848C878.115 554.327 878.023 553.836 878.023 553.376C878.023 552.425 878.36 551.674 879.035 551.122C879.709 550.539 880.507 550.248 881.427 550.248C882.163 550.248 882.822 550.447 883.405 550.846C884.018 551.214 884.463 551.766 884.739 552.502L891.823 572.88L899.183 552.594C899.459 551.858 899.888 551.291 900.471 550.892C901.084 550.493 901.728 550.294 902.403 550.294C903.108 550.294 903.752 550.493 904.335 550.892C904.917 551.291 905.347 551.873 905.623 552.64L912.661 573.248L919.975 552.502ZM934.43 583C933.356 583 932.528 582.709 931.946 582.126C931.363 581.543 931.072 580.715 931.072 579.642V553.928C931.072 552.855 931.363 552.027 931.946 551.444C932.528 550.861 933.356 550.57 934.43 550.57H950.714C952.983 550.57 954.118 551.49 954.118 553.33C954.118 555.201 952.983 556.136 950.714 556.136H938.064V563.726H949.794C952.063 563.726 953.198 564.661 953.198 566.532C953.198 568.372 952.063 569.292 949.794 569.292H938.064V577.434H950.714C952.983 577.434 954.118 578.369 954.118 580.24C954.118 582.08 952.983 583 950.714 583H934.43ZM1011.39 552.502C1011.67 551.766 1012.08 551.214 1012.63 550.846C1013.22 550.447 1013.86 550.248 1014.56 550.248C1015.45 550.248 1016.21 550.524 1016.82 551.076C1017.46 551.628 1017.78 552.379 1017.78 553.33C1017.78 553.79 1017.69 554.296 1017.51 554.848L1007.94 581.022C1007.66 581.758 1007.17 582.341 1006.47 582.77C1005.79 583.169 1005.04 583.368 1004.21 583.368C1003.39 583.368 1002.64 583.169 1001.96 582.77C1001.29 582.341 1000.81 581.758 1000.53 581.022L993.681 561.656L986.643 581.022C986.367 581.758 985.891 582.341 985.217 582.77C984.542 583.169 983.791 583.368 982.963 583.368C982.165 583.368 981.414 583.169 980.709 582.77C980.034 582.341 979.559 581.758 979.283 581.022L969.715 554.848C969.531 554.327 969.439 553.836 969.439 553.376C969.439 552.425 969.776 551.674 970.451 551.122C971.125 550.539 971.923 550.248 972.843 550.248C973.579 550.248 974.238 550.447 974.821 550.846C975.434 551.214 975.879 551.766 976.155 552.502L983.239 572.88L990.599 552.594C990.875 551.858 991.304 551.291 991.887 550.892C992.5 550.493 993.144 550.294 993.819 550.294C994.524 550.294 995.168 550.493 995.751 550.892C996.333 551.291 996.763 551.873 997.039 552.64L1004.08 573.248L1011.39 552.502ZM1036.49 583.414C1033.27 583.414 1030.47 582.739 1028.08 581.39C1025.71 580.01 1023.89 578.078 1022.6 575.594C1021.31 573.079 1020.67 570.135 1020.67 566.762C1020.67 563.389 1021.31 560.46 1022.6 557.976C1023.89 555.461 1025.71 553.529 1028.08 552.18C1030.47 550.831 1033.27 550.156 1036.49 550.156C1039.71 550.156 1042.5 550.831 1044.87 552.18C1047.26 553.529 1049.1 555.461 1050.39 557.976C1051.67 560.46 1052.32 563.389 1052.32 566.762C1052.32 570.135 1051.67 573.079 1050.39 575.594C1049.1 578.078 1047.26 580.01 1044.87 581.39C1042.5 582.739 1039.71 583.414 1036.49 583.414ZM1036.49 577.848C1039.19 577.848 1041.31 576.897 1042.84 574.996C1044.41 573.095 1045.19 570.35 1045.19 566.762C1045.19 563.174 1044.42 560.445 1042.89 558.574C1041.35 556.673 1039.22 555.722 1036.49 555.722C1033.76 555.722 1031.63 556.673 1030.1 558.574C1028.6 560.445 1027.85 563.174 1027.85 566.762C1027.85 570.35 1028.61 573.095 1030.15 574.996C1031.68 576.897 1033.79 577.848 1036.49 577.848ZM1071.55 583.414C1067.01 583.414 1063.55 582.249 1061.15 579.918C1058.79 577.557 1057.61 574.122 1057.61 569.614V553.882C1057.61 552.809 1057.93 551.95 1058.58 551.306C1059.22 550.662 1060.08 550.34 1061.15 550.34C1062.23 550.34 1063.07 550.662 1063.68 551.306C1064.33 551.95 1064.65 552.809 1064.65 553.882V569.936C1064.65 572.512 1065.23 574.475 1066.4 575.824C1067.59 577.173 1069.31 577.848 1071.55 577.848C1073.79 577.848 1075.51 577.173 1076.7 575.824C1077.9 574.444 1078.5 572.481 1078.5 569.936V553.882C1078.5 552.809 1078.8 551.95 1079.42 551.306C1080.06 550.662 1080.92 550.34 1081.99 550.34C1083.07 550.34 1083.92 550.662 1084.57 551.306C1085.21 551.95 1085.53 552.809 1085.53 553.882V569.614C1085.53 574.091 1084.34 577.511 1081.95 579.872C1079.55 582.233 1076.09 583.414 1071.55 583.414ZM1095.16 583C1094.09 583 1093.26 582.709 1092.68 582.126C1092.09 581.543 1091.8 580.715 1091.8 579.642V553.882C1091.8 552.809 1092.12 551.95 1092.77 551.306C1093.41 550.662 1094.29 550.34 1095.39 550.34C1096.49 550.34 1097.37 550.662 1098.01 551.306C1098.66 551.95 1098.98 552.809 1098.98 553.882V577.158H1110.75C1112.99 577.158 1114.11 578.139 1114.11 580.102C1114.11 582.034 1112.99 583 1110.75 583H1095.16ZM1121.08 583C1120.01 583 1119.18 582.709 1118.6 582.126C1118.01 581.543 1117.72 580.715 1117.72 579.642V553.928C1117.72 552.855 1118.01 552.027 1118.6 551.444C1119.18 550.861 1120.01 550.57 1121.08 550.57H1130.33C1133.85 550.57 1136.89 551.214 1139.43 552.502C1141.98 553.79 1143.93 555.645 1145.28 558.068C1146.63 560.491 1147.3 563.389 1147.3 566.762C1147.3 570.135 1146.63 573.049 1145.28 575.502C1143.96 577.925 1142.03 579.78 1139.48 581.068C1136.93 582.356 1133.88 583 1130.33 583H1121.08ZM1129.82 577.204C1136.72 577.204 1140.17 573.723 1140.17 566.762C1140.17 559.831 1136.72 556.366 1129.82 556.366H1124.9V577.204H1129.82ZM1190.72 565.106C1191.58 565.106 1192.26 565.351 1192.75 565.842C1193.27 566.302 1193.53 566.946 1193.53 567.774V576.744C1193.53 577.971 1193.42 578.921 1193.21 579.596C1193.02 580.271 1192.69 580.807 1192.2 581.206C1191.7 581.605 1190.97 581.942 1189.99 582.218C1188.79 582.586 1187.41 582.877 1185.85 583.092C1184.31 583.307 1182.86 583.414 1181.48 583.414C1178.04 583.414 1175.07 582.755 1172.55 581.436C1170.04 580.087 1168.11 578.17 1166.76 575.686C1165.41 573.171 1164.73 570.197 1164.73 566.762C1164.73 563.389 1165.39 560.46 1166.71 557.976C1168.06 555.461 1169.98 553.529 1172.46 552.18C1174.95 550.831 1177.84 550.156 1181.16 550.156C1185.42 550.156 1188.94 551.26 1191.74 553.468C1192.2 553.836 1192.52 554.204 1192.7 554.572C1192.89 554.94 1192.98 555.4 1192.98 555.952C1192.98 556.749 1192.75 557.439 1192.29 558.022C1191.86 558.574 1191.34 558.85 1190.72 558.85C1190.32 558.85 1189.96 558.789 1189.62 558.666C1189.31 558.543 1188.93 558.344 1188.47 558.068C1187.18 557.271 1186 556.703 1184.93 556.366C1183.85 556.029 1182.67 555.86 1181.39 555.86C1175.13 555.86 1172 559.494 1172 566.762C1172 570.503 1172.81 573.294 1174.44 575.134C1176.06 576.974 1178.52 577.894 1181.8 577.894C1183.58 577.894 1185.34 577.664 1187.09 577.204V570.074H1182.86C1181.97 570.074 1181.28 569.859 1180.79 569.43C1180.3 569.001 1180.05 568.387 1180.05 567.59C1180.05 566.793 1180.3 566.179 1180.79 565.75C1181.28 565.321 1181.97 565.106 1182.86 565.106H1190.72ZM1214.52 583.414C1211.3 583.414 1208.49 582.739 1206.1 581.39C1203.74 580.01 1201.91 578.078 1200.63 575.594C1199.34 573.079 1198.69 570.135 1198.69 566.762C1198.69 563.389 1199.34 560.46 1200.63 557.976C1201.91 555.461 1203.74 553.529 1206.1 552.18C1208.49 550.831 1211.3 550.156 1214.52 550.156C1217.74 550.156 1220.53 550.831 1222.89 552.18C1225.28 553.529 1227.12 555.461 1228.41 557.976C1229.7 560.46 1230.34 563.389 1230.34 566.762C1230.34 570.135 1229.7 573.079 1228.41 575.594C1227.12 578.078 1225.28 580.01 1222.89 581.39C1220.53 582.739 1217.74 583.414 1214.52 583.414ZM1214.52 577.848C1217.22 577.848 1219.33 576.897 1220.87 574.996C1222.43 573.095 1223.21 570.35 1223.21 566.762C1223.21 563.174 1222.45 560.445 1220.91 558.574C1219.38 556.673 1217.25 555.722 1214.52 555.722C1211.79 555.722 1209.66 556.673 1208.12 558.574C1206.62 560.445 1205.87 563.174 1205.87 566.762C1205.87 570.35 1206.64 573.095 1208.17 574.996C1209.7 576.897 1211.82 577.848 1214.52 577.848ZM942.538 646C941.465 646 940.637 645.709 940.054 645.126C939.471 644.543 939.18 643.715 939.18 642.642V616.882C939.18 615.809 939.502 614.95 940.146 614.306C940.79 613.662 941.664 613.34 942.768 613.34C943.872 613.34 944.746 613.662 945.39 614.306C946.034 614.95 946.356 615.809 946.356 616.882V640.158H958.132C960.371 640.158 961.49 641.139 961.49 643.102C961.49 645.034 960.371 646 958.132 646H942.538ZM968.688 646.276C967.584 646.276 966.71 645.954 966.066 645.31C965.422 644.666 965.1 643.792 965.1 642.688V616.882C965.1 615.809 965.422 614.95 966.066 614.306C966.71 613.662 967.584 613.34 968.688 613.34C969.792 613.34 970.666 613.662 971.31 614.306C971.954 614.95 972.276 615.809 972.276 616.882V642.688C972.276 643.792 971.954 644.666 971.31 645.31C970.666 645.954 969.792 646.276 968.688 646.276ZM1002.17 615.226C1002.45 614.582 1002.85 614.107 1003.37 613.8C1003.89 613.463 1004.47 613.294 1005.12 613.294C1006.04 613.294 1006.86 613.601 1007.6 614.214C1008.34 614.827 1008.7 615.579 1008.7 616.468C1008.7 616.928 1008.6 617.388 1008.38 617.848L995.961 644.068C995.624 644.773 995.118 645.325 994.443 645.724C993.769 646.092 993.033 646.276 992.235 646.276C991.438 646.276 990.702 646.092 990.027 645.724C989.353 645.325 988.847 644.773 988.509 644.068L976.089 617.848C975.875 617.419 975.767 616.974 975.767 616.514C975.767 615.594 976.151 614.827 976.917 614.214C977.684 613.601 978.543 613.294 979.493 613.294C980.137 613.294 980.72 613.463 981.241 613.8C981.793 614.107 982.207 614.582 982.483 615.226L992.327 636.754L1002.17 615.226ZM1015.54 646C1014.46 646 1013.63 645.709 1013.05 645.126C1012.47 644.543 1012.18 643.715 1012.18 642.642V616.928C1012.18 615.855 1012.47 615.027 1013.05 614.444C1013.63 613.861 1014.46 613.57 1015.54 613.57H1031.82C1034.09 613.57 1035.22 614.49 1035.22 616.33C1035.22 618.201 1034.09 619.136 1031.82 619.136H1019.17V626.726H1030.9C1033.17 626.726 1034.3 627.661 1034.3 629.532C1034.3 631.372 1033.17 632.292 1030.9 632.292H1019.17V640.434H1031.82C1034.09 640.434 1035.22 641.369 1035.22 643.24C1035.22 645.08 1034.09 646 1031.82 646H1015.54ZM1063.98 646.414C1061.55 646.414 1059.3 646.138 1057.22 645.586C1055.13 645.003 1053.43 644.191 1052.11 643.148C1051.65 642.811 1051.31 642.458 1051.1 642.09C1050.91 641.691 1050.82 641.201 1050.82 640.618C1050.82 639.851 1051.05 639.177 1051.51 638.594C1052 638.011 1052.55 637.72 1053.17 637.72C1053.5 637.72 1053.83 637.781 1054.13 637.904C1054.47 637.996 1054.87 638.18 1055.33 638.456C1056.65 639.284 1057.98 639.897 1059.33 640.296C1060.68 640.664 1062.17 640.848 1063.79 640.848C1065.82 640.848 1067.37 640.511 1068.44 639.836C1069.51 639.161 1070.05 638.195 1070.05 636.938C1070.05 635.987 1069.54 635.221 1068.53 634.638C1067.55 634.055 1065.79 633.503 1063.24 632.982C1060.39 632.399 1058.1 631.694 1056.39 630.866C1054.7 630.038 1053.46 629.011 1052.66 627.784C1051.89 626.557 1051.51 625.07 1051.51 623.322C1051.51 621.39 1052.06 619.657 1053.17 618.124C1054.3 616.56 1055.85 615.349 1057.81 614.49C1059.81 613.601 1062.05 613.156 1064.53 613.156C1068.88 613.156 1072.47 614.245 1075.29 616.422C1075.75 616.79 1076.08 617.173 1076.26 617.572C1076.47 617.94 1076.58 618.4 1076.58 618.952C1076.58 619.719 1076.34 620.393 1075.85 620.976C1075.39 621.559 1074.85 621.85 1074.24 621.85C1073.9 621.85 1073.58 621.804 1073.27 621.712C1072.99 621.62 1072.59 621.421 1072.07 621.114C1070.82 620.317 1069.65 619.719 1068.58 619.32C1067.53 618.921 1066.2 618.722 1064.58 618.722C1062.7 618.722 1061.23 619.09 1060.16 619.826C1059.09 620.531 1058.55 621.513 1058.55 622.77C1058.55 623.506 1058.75 624.119 1059.15 624.61C1059.58 625.07 1060.27 625.484 1061.22 625.852C1062.2 626.22 1063.58 626.603 1065.36 627.002C1069.53 627.922 1072.52 629.103 1074.33 630.544C1076.17 631.985 1077.09 633.963 1077.09 636.478C1077.09 638.441 1076.54 640.173 1075.43 641.676C1074.36 643.179 1072.82 644.344 1070.83 645.172C1068.87 646 1066.58 646.414 1063.98 646.414ZM1097.16 646.414C1093.94 646.414 1091.13 645.739 1088.74 644.39C1086.38 643.01 1084.56 641.078 1083.27 638.594C1081.98 636.079 1081.34 633.135 1081.34 629.762C1081.34 626.389 1081.98 623.46 1083.27 620.976C1084.56 618.461 1086.38 616.529 1088.74 615.18C1091.13 613.831 1093.94 613.156 1097.16 613.156C1100.38 613.156 1103.17 613.831 1105.53 615.18C1107.92 616.529 1109.76 618.461 1111.05 620.976C1112.34 623.46 1112.98 626.389 1112.98 629.762C1112.98 633.135 1112.34 636.079 1111.05 638.594C1109.76 641.078 1107.92 643.01 1105.53 644.39C1103.17 645.739 1100.38 646.414 1097.16 646.414ZM1097.16 640.848C1099.86 640.848 1101.97 639.897 1103.51 637.996C1105.07 636.095 1105.85 633.35 1105.85 629.762C1105.85 626.174 1105.09 623.445 1103.55 621.574C1102.02 619.673 1099.89 618.722 1097.16 618.722C1094.43 618.722 1092.3 619.673 1090.77 621.574C1089.26 623.445 1088.51 626.174 1088.51 629.762C1088.51 633.35 1089.28 636.095 1090.81 637.996C1092.35 639.897 1094.46 640.848 1097.16 640.848ZM1133.37 646.414C1130.15 646.414 1127.34 645.739 1124.95 644.39C1122.59 643.01 1120.76 641.078 1119.48 638.594C1118.19 636.079 1117.54 633.135 1117.54 629.762C1117.54 626.389 1118.19 623.46 1119.48 620.976C1120.76 618.461 1122.59 616.529 1124.95 615.18C1127.34 613.831 1130.15 613.156 1133.37 613.156C1136.59 613.156 1139.38 613.831 1141.74 615.18C1144.13 616.529 1145.97 618.461 1147.26 620.976C1148.55 623.46 1149.19 626.389 1149.19 629.762C1149.19 633.135 1148.55 636.079 1147.26 638.594C1145.97 641.078 1144.13 643.01 1141.74 644.39C1139.38 645.739 1136.59 646.414 1133.37 646.414ZM1133.37 640.848C1136.07 640.848 1138.18 639.897 1139.72 637.996C1141.28 636.095 1142.06 633.35 1142.06 629.762C1142.06 626.174 1141.29 623.445 1139.76 621.574C1138.23 619.673 1136.1 618.722 1133.37 618.722C1130.64 618.722 1128.51 619.673 1126.97 621.574C1125.47 623.445 1124.72 626.174 1124.72 629.762C1124.72 633.35 1125.49 636.095 1127.02 637.996C1128.55 639.897 1130.67 640.848 1133.37 640.848ZM1179.42 613.34C1180.43 613.34 1181.24 613.677 1181.86 614.352C1182.5 614.996 1182.82 615.839 1182.82 616.882V642.688C1182.82 643.761 1182.5 644.635 1181.86 645.31C1181.24 645.954 1180.43 646.276 1179.42 646.276C1178.31 646.276 1177.42 645.877 1176.75 645.08L1161.34 625.346V642.688C1161.34 643.761 1161.03 644.635 1160.42 645.31C1159.84 645.954 1159.04 646.276 1158.03 646.276C1157.02 646.276 1156.2 645.954 1155.59 645.31C1154.98 644.635 1154.67 643.761 1154.67 642.688V616.882C1154.67 615.839 1154.98 614.996 1155.59 614.352C1156.23 613.677 1157.06 613.34 1158.07 613.34C1159.21 613.34 1160.08 613.739 1160.7 614.536L1176.11 634.132V616.882C1176.11 615.839 1176.41 614.996 1177.03 614.352C1177.64 613.677 1178.44 613.34 1179.42 613.34Z" fill="black"/>
</g>
<defs>
<filter id="filter0_d" x="-31" y="-29" width="421" height="1168" filterUnits="userSpaceOnUse" color-interpolation-filters="sRGB">
<feFlood flood-opacity="0" result="BackgroundImageFix"/>
<feColorMatrix in="SourceAlpha" type="matrix" values="0 0 0 0 0 0 0 0 0 0 0 0 0 0 0 0 0 0 127 0" result="hardAlpha"/>
<feOffset dx="13" dy="15"/>
<feGaussianBlur stdDeviation="22"/>
<feComposite in2="hardAlpha" operator="out"/>
<feColorMatrix type="matrix" values="0 0 0 0 0 0 0 0 0 0 0 0 0 0 0 0 0 0 0.03 0"/>
<feBlend mode="normal" in2="BackgroundImageFix" result="effect1_dropShadow"/>
<feBlend mode="normal" in="SourceGraphic" in2="effect1_dropShadow" result="shape"/>
</filter>
<linearGradient id="paint0_linear" x1="-2.173e-05" y1="12.5897" x2="2237.76" y2="1490.09" gradientUnits="userSpaceOnUse">
<stop stop-color="#FFFEFE"/>
<stop offset="0.59353" stop-color="#FFFEFE" stop-opacity="0.793699"/>
<stop offset="0.856122" stop-color="#FFFEFE" stop-opacity="0.657338"/>
<stop offset="0.861288" stop-color="#FFFEFE" stop-opacity="0.43123"/>
<stop offset="0.903939" stop-color="#FFFEFE" stop-opacity="0.107712"/>
<stop offset="1" stop-color="#FFFEFE" stop-opacity="0"/>
</linearGradient>
<clipPath id="clip0">
<rect width="1920" height="1080" fill="white"/>
</clipPath>
</defs>
</svg>
